<svg xmlns="http://www.w3.org/2000/svg" width="1200" height="720" viewBox="0 0 1200 720" role="img">
  <defs>
    <filter id="shadow" x="-20%" y="-20%" width="140%" height="140%"><feDropShadow dx="0" dy="10" stdDeviation="12" flood-color="#0f172a" flood-opacity="0.12"/></filter>
    <marker id="arrow-blue"
        markerWidth="10" markerHeight="10"
        refX="9" refY="5"
        orient="auto"
        markerUnits="userSpaceOnUse">
  <path d="M2,3 L10,6 L2,9 Z" fill="#2563eb" fill-opacity="0.9"/>
</marker>

<marker id="arrow-green"
        viewBox="0 0 14 14"
        markerWidth="16"
        markerHeight="16"
        refX="12"
        refY="7"
        orient="auto"
        markerUnits="userSpaceOnUse">
  <path d="M2,3 L12,7 L2,11 Z"
        fill="#16a34a"/>
</marker>

<marker id="arrow-red"
        viewBox="0 0 14 14"
        markerWidth="16"
        markerHeight="16"
        refX="12"
        refY="7"
        orient="auto"
        markerUnits="userSpaceOnUse">
  <path d="M2,3 L12,7 L2,11 Z"
        fill="#dc2626"/>
</marker>

<marker id="arrow-purple"
        markerWidth="10" markerHeight="10"
        refX="9" refY="5"
        orient="auto"
        markerUnits="userSpaceOnUse">
  <path d="M2,3 L10,6 L2,9 Z" fill="#7c3aed" fill-opacity="0.9"/>
</marker>    <style>
      .title{font:700 34px Arial, sans-serif; fill:#0f172a} .subtitle{font:400 18px Arial, sans-serif; fill:#475569}
      .label{font:700 17px Arial, sans-serif; fill:#0f172a} .small{font:400 14px Arial, sans-serif; fill:#475569}
      .tiny{font:400 12px Arial, sans-serif; fill:#64748b} .mono{font:500 15px ui-monospace, SFMono-Regular, Menlo, Consolas, monospace; fill:#0f172a}
      .piece{font:700 38px Arial, sans-serif; fill:#0f172a} .badge{font:700 14px Arial, sans-serif; fill:#ffffff}
    </style>
  </defs><rect width="100%" height="100%" fill="#f8fafc"/>
<text x="60" y="70" class="title" text-anchor="start">Candidate move legality</text>
<text x="60" y="102" class="subtitle" text-anchor="start">The position is already check. A legal move must resolve the check before the model can continue.</text>
<rect x="55" y="135" width="520" height="520" rx="24" fill="#fff" stroke="#cbd5e1" stroke-width="1" filter="url(#shadow)"/>
<rect x="105" y="175" width="50" height="50" fill="#f1f5f9"/><text x="130.0" y="213.0" class="piece" text-anchor="middle">♜</text>
<rect x="155" y="175" width="50" height="50" fill="#cbd5e1"/><rect x="205" y="175" width="50" height="50" fill="#f1f5f9"/><rect x="255" y="175" width="50" height="50" fill="#cbd5e1"/><rect x="305" y="175" width="50" height="50" fill="#f1f5f9"/><text x="330.0" y="213.0" class="piece" text-anchor="middle">♚</text>
<rect x="355" y="175" width="50" height="50" fill="#cbd5e1"/><rect x="405" y="175" width="50" height="50" fill="#f1f5f9"/><rect x="455" y="175" width="50" height="50" fill="#cbd5e1"/><rect x="105" y="225" width="50" height="50" fill="#cbd5e1"/><rect x="155" y="225" width="50" height="50" fill="#f1f5f9"/><rect x="205" y="225" width="50" height="50" fill="#cbd5e1"/><rect x="255" y="225" width="50" height="50" fill="#f1f5f9"/><rect x="305" y="225" width="50" height="50" fill="#cbd5e1"/><rect x="355" y="225" width="50" height="50" fill="#f1f5f9"/><rect x="405" y="225" width="50" height="50" fill="#cbd5e1"/><rect x="455" y="225" width="50" height="50" fill="#f1f5f9"/><rect x="105" y="275" width="50" height="50" fill="#f1f5f9"/><rect x="155" y="275" width="50" height="50" fill="#cbd5e1"/><rect x="205" y="275" width="50" height="50" fill="#f1f5f9"/><rect x="255" y="275" width="50" height="50" fill="#cbd5e1"/><rect x="305" y="275" width="50" height="50" fill="#f1f5f9"/><rect x="355" y="275" width="50" height="50" fill="#cbd5e1"/><rect x="405" y="275" width="50" height="50" fill="#f1f5f9"/><rect x="455" y="275" width="50" height="50" fill="#cbd5e1"/><rect x="105" y="325" width="50" height="50" fill="#cbd5e1"/><rect x="155" y="325" width="50" height="50" fill="#f1f5f9"/><rect x="205" y="325" width="50" height="50" fill="#cbd5e1"/><rect x="255" y="325" width="50" height="50" fill="#f1f5f9"/><rect x="305" y="325" width="50" height="50" fill="#cbd5e1"/><rect x="355" y="325" width="50" height="50" fill="#f1f5f9"/><rect x="405" y="325" width="50" height="50" fill="#cbd5e1"/><rect x="455" y="325" width="50" height="50" fill="#f1f5f9"/><rect x="105" y="375" width="50" height="50" fill="#f1f5f9"/><rect x="155" y="375" width="50" height="50" fill="#cbd5e1"/><rect x="158" y="378" width="44" height="44" rx="8" fill="#fef3c7" opacity="0.85" stroke="#d97706" stroke-width="2"/><text x="180.0" y="413.0" class="piece" text-anchor="middle">♝</text>
<rect x="205" y="375" width="50" height="50" fill="#f1f5f9"/><rect x="255" y="375" width="50" height="50" fill="#cbd5e1"/><rect x="305" y="375" width="50" height="50" fill="#f1f5f9"/><rect x="355" y="375" width="50" height="50" fill="#cbd5e1"/><rect x="405" y="375" width="50" height="50" fill="#f1f5f9"/><rect x="455" y="375" width="50" height="50" fill="#cbd5e1"/><rect x="105" y="425" width="50" height="50" fill="#cbd5e1"/><rect x="155" y="425" width="50" height="50" fill="#f1f5f9"/><rect x="205" y="425" width="50" height="50" fill="#cbd5e1"/><rect x="255" y="425" width="50" height="50" fill="#f1f5f9"/><rect x="305" y="425" width="50" height="50" fill="#cbd5e1"/><rect x="355" y="425" width="50" height="50" fill="#f1f5f9"/><rect x="405" y="425" width="50" height="50" fill="#cbd5e1"/><rect x="455" y="425" width="50" height="50" fill="#f1f5f9"/><rect x="105" y="475" width="50" height="50" fill="#f1f5f9"/><rect x="155" y="475" width="50" height="50" fill="#cbd5e1"/><rect x="205" y="475" width="50" height="50" fill="#f1f5f9"/><rect x="255" y="475" width="50" height="50" fill="#cbd5e1"/><rect x="258" y="478" width="44" height="44" rx="8" fill="#dcfce7" opacity="0.9" stroke="#16a34a" stroke-width="2"/><rect x="305" y="475" width="50" height="50" fill="#f1f5f9"/><text x="330.0" y="513.0" class="piece" text-anchor="middle">♙</text>
<rect x="355" y="475" width="50" height="50" fill="#cbd5e1"/><rect x="405" y="475" width="50" height="50" fill="#f1f5f9"/><rect x="455" y="475" width="50" height="50" fill="#cbd5e1"/><rect x="105" y="525" width="50" height="50" fill="#cbd5e1"/><rect x="155" y="525" width="50" height="50" fill="#f1f5f9"/><rect x="205" y="525" width="50" height="50" fill="#cbd5e1"/><text x="230.0" y="563.0" class="piece" text-anchor="middle">♗</text>
<rect x="255" y="525" width="50" height="50" fill="#f1f5f9"/><rect x="305" y="525" width="50" height="50" fill="#cbd5e1"/><rect x="308" y="528" width="44" height="44" rx="8" fill="#fee2e2" opacity="0.85" stroke="#dc2626" stroke-width="2"/><text x="330.0" y="563.0" class="piece" text-anchor="middle">♔</text>
<rect x="355" y="525" width="50" height="50" fill="#f1f5f9"/><rect x="405" y="525" width="50" height="50" fill="#cbd5e1"/><rect x="408" y="528" width="44" height="44" rx="8" fill="#fee2e2" opacity="0.6" stroke="#dc2626" stroke-width="2"/><rect x="455" y="525" width="50" height="50" fill="#f1f5f9"/><text x="480.0" y="563.0" class="piece" text-anchor="middle">♖</text>
<rect x="105" y="175" width="400" height="400" fill="none" stroke="#334155" stroke-width="2" rx="8"/><text x="130.0" y="595" class="tiny" text-anchor="middle">a</text>
<text x="180.0" y="595" class="tiny" text-anchor="middle">b</text>
<text x="230.0" y="595" class="tiny" text-anchor="middle">c</text>
<text x="280.0" y="595" class="tiny" text-anchor="middle">d</text>
<text x="330.0" y="595" class="tiny" text-anchor="middle">e</text>
<text x="380.0" y="595" class="tiny" text-anchor="middle">f</text>
<text x="430.0" y="595" class="tiny" text-anchor="middle">g</text>
<text x="480.0" y="595" class="tiny" text-anchor="middle">h</text>
<text x="91" y="204.0" class="tiny" text-anchor="middle">8</text>
<text x="91" y="254.0" class="tiny" text-anchor="middle">7</text>
<text x="91" y="304.0" class="tiny" text-anchor="middle">6</text>
<text x="91" y="354.0" class="tiny" text-anchor="middle">5</text>
<text x="91" y="404.0" class="tiny" text-anchor="middle">4</text>
<text x="91" y="454.0" class="tiny" text-anchor="middle">3</text>
<text x="91" y="504.0" class="tiny" text-anchor="middle">2</text>
<text x="91" y="554.0" class="tiny" text-anchor="middle">1</text>
<line x1="180.0" y1="400.0" x2="330.0" y2="550.0" stroke="#d97706" stroke-width="5" stroke-linecap="round" stroke-dasharray="10 8" opacity="0.9" marker-end="url(#arrow-red)"/><path d="M230.0,550.0 Q260.0,510.0 280.0,500.0" fill="none" stroke="#16a34a" stroke-width="4" stroke-linecap="round" marker-end="url(#arrow-green)"/><path d="M330.0,564.0 C375.0,620.0 385.0,620.0 430.0,564.0" fill="none" stroke="#dc2626" stroke-width="4" stroke-linecap="round" stroke-dasharray="8 8" marker-end="url(#arrow-red)"/><rect x="625" y="165" width="500" height="130" rx="20" fill="#dcfce7" stroke="#16a34a" stroke-width="1"/>
<rect x="655" y="195" width="90" height="30" rx="15.0" fill="#16a34a"/><text x="700.0" y="215.0" class="badge" text-anchor="middle">LEGAL</text>
<text x="655" y="250" class="label" text-anchor="start">Bd2 blocks the bishop’s diagonal check on e1.</text>
<text x="655" y="276" class="small" text-anchor="start">The king is no longer in check after the move.</text>
<rect x="625" y="335" width="500" height="150" rx="20" fill="#fee2e2" stroke="#dc2626" stroke-width="1"/>
<rect x="655" y="365" width="95" height="30" rx="15.0" fill="#dc2626"/><text x="702.5" y="385.0" class="badge" text-anchor="middle">ILLEGAL</text>
<text x="655" y="420" class="label" text-anchor="start">O-O is not allowed while the king is in check.</text>
<text x="655" y="446" class="small" text-anchor="start">Castling cannot be used to escape an existing check.</text>
<rect x="625" y="525" width="500" height="90" rx="20" fill="#fff" stroke="#cbd5e1" stroke-width="1"/>
<text x="655" y="560" class="label" text-anchor="start">Probe question</text>
<text x="655" y="590" class="small" text-anchor="start">Does Chess-GPT encode this legality constraint before emitting the move?</text>
</svg>
